<svg width="1021" height="351" viewBox="0 0 1021 351" fill="none" xmlns="http://www.w3.org/2000/svg">
<path d="M349.3 165V95H381.1C388.7 95 395.4 96.4667 401.2 99.4C407 102.267 411.533 106.3 414.8 111.5C418.067 116.7 419.7 122.867 419.7 130C419.7 137.067 418.067 143.233 414.8 148.5C411.533 153.7 407 157.767 401.2 160.7C395.4 163.567 388.7 165 381.1 165H349.3ZM365.5 151.7H380.3C384.967 151.7 389 150.833 392.4 149.1C395.867 147.3 398.533 144.767 400.4 141.5C402.333 138.233 403.3 134.4 403.3 130C403.3 125.533 402.333 121.7 400.4 118.5C398.533 115.233 395.867 112.733 392.4 111C389 109.2 384.967 108.3 380.3 108.3H365.5V151.7ZM463.017 166.2C453.084 166.2 445.317 163.433 439.717 157.9C434.117 152.367 431.317 144.467 431.317 134.2V95H447.517V133.6C447.517 140.267 448.884 145.067 451.617 148C454.351 150.933 458.184 152.4 463.117 152.4C468.051 152.4 471.884 150.933 474.617 148C477.351 145.067 478.717 140.267 478.717 133.6V95H494.717V134.2C494.717 144.467 491.917 152.367 486.317 157.9C480.717 163.433 472.951 166.2 463.017 166.2ZM533.726 166.2C528.126 166.2 522.759 165.467 517.626 164C512.492 162.467 508.359 160.5 505.226 158.1L510.726 145.9C513.726 148.033 517.259 149.8 521.326 151.2C525.459 152.533 529.626 153.2 533.826 153.2C537.026 153.2 539.592 152.9 541.526 152.3C543.526 151.633 544.992 150.733 545.926 149.6C546.859 148.467 547.326 147.167 547.326 145.7C547.326 143.833 546.592 142.367 545.126 141.3C543.659 140.167 541.726 139.267 539.326 138.6C536.926 137.867 534.259 137.2 531.326 136.6C528.459 135.933 525.559 135.133 522.626 134.2C519.759 133.267 517.126 132.067 514.726 130.6C512.326 129.133 510.359 127.2 508.826 124.8C507.359 122.4 506.626 119.333 506.626 115.6C506.626 111.6 507.692 107.967 509.826 104.7C512.026 101.367 515.292 98.7333 519.626 96.8C524.026 94.8 529.526 93.8 536.126 93.8C540.526 93.8 544.859 94.3333 549.126 95.4C553.392 96.4 557.159 97.9333 560.426 100L555.426 112.3C552.159 110.433 548.892 109.067 545.626 108.2C542.359 107.267 539.159 106.8 536.026 106.8C532.892 106.8 530.326 107.167 528.326 107.9C526.326 108.633 524.892 109.6 524.026 110.8C523.159 111.933 522.726 113.267 522.726 114.8C522.726 116.6 523.459 118.067 524.926 119.2C526.392 120.267 528.326 121.133 530.726 121.8C533.126 122.467 535.759 123.133 538.626 123.8C541.559 124.467 544.459 125.233 547.326 126.1C550.259 126.967 552.926 128.133 555.326 129.6C557.726 131.067 559.659 133 561.126 135.4C562.659 137.8 563.426 140.833 563.426 144.5C563.426 148.433 562.326 152.033 560.126 155.3C557.926 158.567 554.626 161.2 550.226 163.2C545.892 165.2 540.392 166.2 533.726 166.2ZM588.019 165V108.2H565.619V95H626.619V108.2H604.219V165H588.019Z" fill="#464A66"/>
<path d="M351.5 256V186H361.5V256H351.5ZM382.457 256V186H390.657L436.957 243.5H432.657V186H442.657V256H434.457L388.157 198.5H392.457V256H382.457ZM477.509 256V194.7H453.509V186H511.409V194.7H487.409V256H477.509ZM531.401 216.2H567.401V224.7H531.401V216.2ZM532.301 247.3H573.101V256H522.301V186H571.701V194.7H532.301V247.3ZM589.293 256V186H616.593C622.726 186 627.96 186.967 632.293 188.9C636.626 190.833 639.96 193.633 642.293 197.3C644.626 200.967 645.793 205.333 645.793 210.4C645.793 215.467 644.626 219.833 642.293 223.5C639.96 227.1 636.626 229.867 632.293 231.8C627.96 233.733 622.726 234.7 616.593 234.7H594.793L599.293 230.1V256H589.293ZM636.093 256L618.293 230.6H628.993L646.993 256H636.093ZM599.293 231.1L594.793 226.2H616.293C622.693 226.2 627.526 224.833 630.793 222.1C634.126 219.3 635.793 215.4 635.793 210.4C635.793 205.4 634.126 201.533 630.793 198.8C627.526 196.067 622.693 194.7 616.293 194.7H594.793L599.293 189.7V231.1ZM651.349 256L683.049 186H692.949L724.749 256H714.249L685.949 191.6H689.949L661.649 256H651.349ZM664.849 238.5L667.549 230.5H706.949L709.849 238.5H664.849ZM765.515 256.8C760.182 256.8 755.248 255.933 750.715 254.2C746.248 252.4 742.348 249.9 739.015 246.7C735.748 243.433 733.182 239.633 731.315 235.3C729.448 230.967 728.515 226.2 728.515 221C728.515 215.8 729.448 211.033 731.315 206.7C733.182 202.367 735.782 198.6 739.115 195.4C742.448 192.133 746.348 189.633 750.815 187.9C755.348 186.1 760.282 185.2 765.615 185.2C771.015 185.2 775.982 186.133 780.515 188C785.115 189.8 789.015 192.5 792.215 196.1L785.715 202.4C783.048 199.6 780.048 197.533 776.715 196.2C773.382 194.8 769.815 194.1 766.015 194.1C762.082 194.1 758.415 194.767 755.015 196.1C751.682 197.433 748.782 199.3 746.315 201.7C743.848 204.1 741.915 206.967 740.515 210.3C739.182 213.567 738.515 217.133 738.515 221C738.515 224.867 739.182 228.467 740.515 231.8C741.915 235.067 743.848 237.9 746.315 240.3C748.782 242.7 751.682 244.567 755.015 245.9C758.415 247.233 762.082 247.9 766.015 247.9C769.815 247.9 773.382 247.233 776.715 245.9C780.048 244.5 783.048 242.367 785.715 239.5L792.215 245.8C789.015 249.4 785.115 252.133 780.515 254C775.982 255.867 770.982 256.8 765.515 256.8ZM819.599 256V194.7H795.599V186H853.499V194.7H829.499V256H819.599ZM864.391 256V186H874.391V256H864.391ZM914.864 256L884.064 186H894.864L923.164 250.6H916.964L945.464 186H955.464L924.764 256H914.864ZM973.491 216.2H1009.49V224.7H973.491V216.2ZM974.391 247.3H1015.19V256H964.391V186H1013.79V194.7H974.391V247.3Z" fill="#855FAD"/>
<path d="M276.007 156.68L326.939 151.12L329.316 150.863C326.659 132.544 320.891 114.807 312.257 98.4068L254.696 100.903L306.81 88.8386C298.458 75.2786 288.184 62.9841 276.305 52.3337L204.321 49.4322L269.8 46.7331C235.771 19.308 192.186 6.40886 148.601 10.8638C105.016 15.3187 64.9865 36.7642 37.2896 70.4984L61.5334 74.0342L133.844 84.5876L60.8 82.0235L29.3985 80.9168C21.1657 92.7119 14.5263 105.529 9.65027 119.041L61.0988 127.692L6.77089 128.056C-1.21944 155.042 -2.15435 183.607 4.05449 211.052L76.202 217.571L7.50431 223.778C18.2728 257.844 39.9028 287.504 69.1287 308.281C98.3547 329.057 133.59 339.823 169.515 338.951C205.44 338.079 240.105 325.618 268.275 303.449C296.446 281.28 316.593 250.607 325.676 216.059L302.342 214.71L251.41 211.727L302.342 208.758L327.713 207.274C329.907 196.497 331.008 185.529 331 174.534C331 170.539 330.855 166.581 330.565 162.658L326.912 162.253L276.007 156.68Z" fill="#464A66"/>
<path d="M296.253 271.287C293.765 274.403 290.395 278.481 287.066 282.466C290.248 278.883 293.311 275.156 296.253 271.287Z" fill="#464A66"/>
<path d="M46.5132 286.585C39.736 279.417 33.6138 271.657 28.22 263.398L26.9897 261.512L29.6642 261.298C30.2526 261.298 30.8276 261.205 31.095 261.164C52.3702 257.982 70.4895 251.684 84.985 242.443L85.5734 242.056L86.2153 242.323C86.5496 242.47 120.194 256.417 139.356 262.582C141.095 263.13 142.699 263.625 144.157 264.039C145.989 264.561 147.54 264.949 148.757 265.176L153.919 266.072L149.238 267.797C136.411 272.453 123.346 276.425 110.098 279.698C89.4281 283.52 68.5249 285.951 47.5295 286.973H46.9277L46.5132 286.585Z" fill="#AA8EC2"/>
<path d="M85.7071 243.593C85.7071 243.593 119.512 257.634 138.955 263.879C140.694 264.441 142.312 264.935 143.796 265.35C145.615 265.871 147.206 266.273 148.503 266.513H148.77C135.991 271.153 122.975 275.112 109.777 278.374C89.1987 282.17 68.3898 284.587 47.4893 285.609C40.7666 278.532 34.6935 270.866 29.3432 262.702C30.0787 262.702 30.9345 262.582 31.2956 262.528C51.9958 259.439 70.3558 253.395 85.7071 243.593ZM85.4397 240.585L84.2629 241.333C69.9279 250.493 51.9824 256.738 30.9078 259.881C30.6938 259.881 29.9717 259.974 29.4903 260.014H29.1293L24.6362 260.375L27.07 264.173C32.5177 272.474 38.6981 280.27 45.537 287.468L46.3661 288.337H47.5696C68.6048 287.314 89.5479 284.883 110.258 281.062H110.339H110.419C123.712 277.778 136.822 273.792 149.693 269.121L158.947 265.738L149.252 263.973H149.172H149.011C147.821 263.745 146.337 263.371 144.518 262.863C143.181 262.462 141.523 261.98 139.771 261.418C120.662 255.267 87.0577 241.36 86.7234 241.2L85.3862 240.665L85.4397 240.585Z" fill="white"/>
<path d="M300.492 266.353C288.684 264.267 251.095 254.197 247.457 252.379L244.596 250.948L247.631 249.918C258.075 246.388 278.681 235.864 286.237 229.526L287.4 228.55L288.229 229.887C288.499 230.308 288.799 230.711 289.125 231.09L289.312 231.304L289.593 231.598C289.794 231.839 290.008 232.066 290.235 232.307L290.556 232.588L290.89 232.896L291.559 233.511L292.201 234.019L292.321 234.112L293.057 234.687L293.779 235.209C294.086 235.423 294.38 235.637 294.701 235.837L295.49 236.346L296.453 236.947L297.282 237.442L298.285 238.004L299.154 238.472C299.489 238.659 299.836 238.833 300.184 239.007C300.532 239.18 300.759 239.314 301.053 239.448L302.096 239.956L302.979 240.371L304.008 240.825L304.891 241.213L305.894 241.628L306.75 241.975L307.726 242.35L308.542 242.657L310.213 243.259L311.778 243.767L312.553 243.994L314.091 244.436L313.409 245.88C310.024 252.795 306.154 259.462 301.829 265.831L301.347 266.553L300.492 266.353Z" fill="#AA8EC2"/>
<path d="M287.106 230.555C287.402 231.025 287.733 231.472 288.095 231.893C288.216 232.04 288.363 232.187 288.497 232.334C288.63 232.481 289.018 232.922 289.299 233.203C289.58 233.484 289.673 233.551 289.861 233.711L290.703 234.473C290.917 234.661 291.144 234.835 291.372 235.008C291.599 235.182 291.947 235.476 292.268 235.704C292.589 235.931 292.762 236.065 293.016 236.239L293.953 236.894L294.768 237.429L295.758 238.044L296.614 238.539L297.643 239.127L298.526 239.608L299.569 240.157L300.465 240.598L301.521 241.106L302.43 241.534L303.474 242.002L304.369 242.39L305.386 242.818L306.255 243.165L307.244 243.553L308.074 243.861L309.01 244.195L309.799 244.476L310.668 244.757L311.376 244.984L312.192 245.225C308.826 252.082 304.983 258.696 300.692 265.016C288.416 262.849 251.215 252.78 248.032 251.175C258.73 247.552 279.43 236.934 287.079 230.542M287.681 226.53L285.354 228.483C277.892 234.728 257.527 245.131 247.177 248.621L241.092 250.681L246.829 253.556C250.52 255.388 288.376 265.591 300.224 267.637L301.936 267.944L302.912 266.513C307.263 260.106 311.164 253.403 314.586 246.455L316.003 243.567L312.914 242.697L312.139 242.47L311.631 242.31H311.47L310.628 242.029L309.999 241.815H309.879L308.969 241.494L308.181 241.186L307.218 240.812L306.375 240.478L305.386 240.063L304.517 239.689L303.514 239.234L302.644 238.833L301.628 238.338L300.759 237.91L299.756 237.375L298.9 236.921L297.937 236.359H297.857L297.108 235.918C296.801 235.744 296.507 235.557 296.212 235.356L296.025 235.249L295.41 234.848C295.143 234.674 294.889 234.487 294.634 234.3L294.528 234.233L294.327 234.086C294.153 233.979 293.993 233.858 293.832 233.738L293.137 233.203L293.003 233.096L292.789 232.922L292.401 232.615L291.786 232.053L291.652 231.933L291.425 231.719L291.158 231.478C290.93 231.251 290.743 231.037 290.543 230.81L290.462 230.729C290.398 230.647 290.326 230.571 290.248 230.502L290.115 230.355C289.831 230.014 289.568 229.657 289.326 229.285L287.681 226.731V226.53Z" fill="white"/>
<path d="M300.184 265.925H300.117C298.86 267.708 297.572 269.491 296.253 271.274C298.793 268.118 300.425 265.952 300.184 265.925Z" fill="#AA8EC2"/>
<path d="M67.0796 304.945L66.732 304.678C60.7556 300.161 55.0907 295.247 49.776 289.968L47.8237 288.029L51.5278 287.575C71.0373 285.325 90.3853 281.846 109.456 277.158C122.61 273.911 135.582 269.965 148.316 265.337C169.243 257.674 187.483 248.581 202.527 238.298L203.235 237.817L203.971 238.258C204.372 238.499 204.84 238.753 205.308 239.007L205.87 239.287L207.02 239.822L207.969 240.237C208.317 240.384 208.651 240.544 209.026 240.692L210.149 241.146L211.326 241.601L212.462 242.029L213.893 242.55L216.688 243.54L218.239 244.061L219.697 244.543L222.906 245.586L226.289 246.629L229.806 247.685L234.125 249.022L239.006 250.36L242.857 251.416L246.775 252.472L250.787 253.516L254.799 254.545L258.744 255.548L263.397 256.698L270.31 258.383L274.041 259.252L279.39 260.482L282.573 261.178L285.729 261.873L288.818 262.515L291.612 263.09L294.167 263.585L296.48 264.013L298.499 264.36L300.411 264.641L302.511 264.975L301.307 266.727C299.97 268.693 298.633 270.471 297.416 272.156C295.103 275.031 291.84 279.016 288.189 283.376C283.529 288.563 278.549 293.453 273.279 298.018L272.905 298.339H270.444H269.388H268.265H267.155H265.978L264.828 298.272L263.598 298.179L262.394 298.085L261.124 297.965L259.947 297.858L258.543 297.711L257.206 297.564L255.869 297.39L253.194 297.029L250.346 296.601L249.009 296.387L246.053 295.892L243.031 295.357L239.942 294.755L236.786 294.114L233.564 293.418L230.314 292.683L226.985 291.894L223.615 291.051L220.205 290.155L216.755 289.206L213.265 288.216L209.748 287.173L206.217 286.09L202.647 284.954L199.077 283.763L195.493 282.533L191.882 281.196L189.823 280.447L188.272 279.872L184.661 278.535L181.72 277.358L181.051 277.104L177.935 275.767L175.702 276.583H175.595L173.108 277.519L170.567 278.522L168.2 279.471L167.545 278.294L168.053 279.538L165.82 280.461L165.165 279.284L165.673 280.514L163.48 281.45L162.811 280.273L163.346 281.504L156.486 284.445L154.2 285.422L151.886 286.384L149.506 287.347L147.246 288.243L147.032 288.323L144.732 289.206L144.05 288.029L144.518 289.286L142.138 290.142L141.897 290.236L139.437 291.091L139.156 291.185L136.602 292.027L136.053 290.797L136.468 292.134H136.294L133.62 292.977L133.285 293.071L130.477 293.9L130.13 293.993L127.174 294.822L126.8 294.916L123.684 295.718L123.283 295.825C122.213 296.093 121.117 296.36 119.993 296.614L119.552 296.721L116.089 297.51L115.688 297.59L111.93 298.393L111.422 298.5L107.531 299.262L106.982 299.369L102.864 300.118L102.275 300.225L97.9026 300.973L97.2741 301.067C95.7764 301.321 94.2386 301.562 92.6473 301.803L91.9921 301.91L87.0711 302.645L86.3891 302.739L81.174 303.461L80.4519 303.554L74.9425 304.263L74.1268 304.357C72.2413 304.597 70.3024 304.825 68.3099 305.052H67.8419L67.0796 304.945Z" fill="#AA8EC2"/>
<path d="M203.289 239.328C203.704 239.582 204.198 239.849 204.733 240.116L205.308 240.397L206.485 240.959L207.327 241.32L208.544 241.855L209.547 242.256L210.884 242.778L212.034 243.205L213.479 243.74L214.816 244.182L216.354 244.73L217.691 245.198L219.336 245.733L220.807 246.214L222.558 246.776L224.11 247.257L225.941 247.832L227.573 248.327L229.472 248.889L231.17 249.397L233.149 249.972L234.861 250.453L236.92 251.042L238.699 251.536L240.771 252.111L242.563 252.606L244.729 253.181L246.495 253.663L248.728 254.251L250.453 254.706L252.846 255.321L254.411 255.735L257.366 256.484L258.369 256.738L262.287 257.714L263.624 258.035L266.192 258.664L267.81 259.052L269.99 259.573L271.594 259.947L273.72 260.442L275.272 260.803L277.304 261.271L278.869 261.632L280.741 262.047L282.265 262.381L284.044 262.769L285.488 263.077L287.133 263.438L288.47 263.718L289.981 264.039L291.318 264.293L292.655 264.574L293.832 264.788L295.103 265.029L296.146 265.216L297.269 265.417L298.192 265.564L299.168 265.724L299.943 265.831H300.117C298.86 267.614 297.572 269.397 296.253 271.18C293.765 274.296 290.396 278.374 287.066 282.359C282.475 287.494 277.562 292.331 272.356 296.841H270.444H269.401H268.305H267.208H266.045L264.908 296.761L263.691 296.681L262.501 296.574L261.231 296.467L259.987 296.347L258.65 296.2L257.313 296.052L255.975 295.892L254.638 295.718L253.234 295.531L251.897 295.33L250.453 295.116L249.035 294.889L247.551 294.648L246.107 294.408L244.569 294.127L243.111 293.859L241.533 293.565L240.022 293.271L238.431 292.95L236.88 292.629L235.262 292.281L233.684 291.947L232.026 291.573L230.435 291.198L228.723 290.797L227.132 290.409L225.393 289.981L223.775 289.58L222.01 289.112L220.379 288.684L218.6 288.203L216.942 287.748L215.137 287.24L213.465 286.759L211.606 286.13L209.922 285.635L208.076 285.06L206.405 284.552L204.519 283.951L202.848 283.416L200.962 282.787L199.291 282.226L197.312 281.557L195.72 280.995C195.038 280.768 194.383 280.514 193.688 280.273L192.123 279.712L190.077 278.963L188.526 278.388L186.346 277.559L185.009 277.01L182.602 276.061L181.412 275.58L177.828 274.109L175.087 275.098L172.493 276.074C171.65 276.395 170.808 276.716 169.992 277.051L167.478 278.107H167.331L165.085 279.043H164.951L162.744 279.979H162.597L160.458 280.902L160.257 280.982L158.505 281.744L155.965 282.827L155.764 282.921L153.638 283.817L153.464 283.897L151.325 284.793H151.137L148.958 285.689H148.77L146.551 286.572L146.337 286.652L144.05 287.521L143.836 287.601L141.483 288.457L141.229 288.551L138.781 289.393L138.514 289.487L135.973 290.329L135.679 290.423C134.823 290.704 133.927 290.984 133.005 291.252L132.684 291.345C131.788 291.626 130.852 291.894 129.902 292.174L129.555 292.268C128.592 292.549 127.616 292.816 126.613 293.084L126.252 293.177L123.149 293.98L122.735 294.087L119.472 294.876L119.031 294.983L115.581 295.758L115.099 295.865L111.449 296.641L110.941 296.734C109.684 297.002 108.4 297.256 107.076 297.51L106.514 297.604L102.409 298.366L101.834 298.459C100.417 298.714 98.959 298.968 97.4747 299.208L96.8462 299.315L92.2328 300.051L91.5775 300.144L86.6699 300.88L85.988 300.973L80.7862 301.696L80.0507 301.789L74.5547 302.484L73.7524 302.591L67.9488 303.287H67.5477H67.4808C61.549 298.806 55.9327 293.923 50.672 288.671C70.5617 286.418 90.2862 282.889 109.724 278.107C122.929 274.951 135.959 271.099 148.757 266.567C167.478 259.693 186.48 250.828 203.235 239.394M203.142 236.212L201.724 237.188C186.761 247.404 168.628 256.444 147.834 264.053C135.125 268.666 122.181 272.603 109.055 275.847C90.0375 280.526 70.743 283.996 51.2871 286.237L50.3243 286.358L44.855 287.013L48.7597 290.904C54.1106 296.235 59.8157 301.199 65.836 305.761L66.5581 306.296H67.8285H68.0558H68.2297C70.2221 306.068 72.1611 305.841 74.0599 305.6L74.8623 305.507L80.385 304.798L81.1071 304.704L86.3356 303.982L86.8973 303.902H87.0176L91.952 303.166L92.4868 303.086H92.6206C94.1985 302.846 95.7497 302.605 97.2607 302.351L97.9427 302.177C99.4404 301.936 100.898 301.682 102.315 301.428L102.717 301.361H102.904L107.036 300.599L107.477 300.519H107.597C108.935 300.265 110.272 300.011 111.502 299.743H111.89H112.01L115.701 298.954L116.009 298.887H116.182L119.673 298.098L119.967 298.018H120.114L123.417 297.216L123.738 297.136H123.831C124.901 296.868 125.944 296.601 126.96 296.32H127.214H127.335L130.303 295.504L130.544 295.424H130.665L133.513 294.154L133.727 294.087H133.847L136.522 293.258L136.695 293.191H136.816L139.41 292.335L139.584 292.268H139.677L142.151 291.399H142.298H142.405L144.799 290.516H144.919H145.013L147.326 289.634H147.447H147.54L149.8 288.751H149.88H149.974L152.194 287.855H152.287H152.368L154.534 286.959H154.614H154.708L156.834 286.063L156.968 285.997H157.048L159.589 284.9H159.749L161.34 284.218H161.434H161.541L163.68 283.295H163.761L165.94 282.373H166.007L168.24 281.45H168.388L170.701 280.514L173.215 279.524L175.822 278.535L177.588 277.893L180.262 278.989L180.984 279.27L181.466 279.458L181.786 279.591L183.886 280.42L184.768 280.768L185.303 280.969L185.745 281.142L187.51 281.811L188.539 282.199L189.061 282.386L189.542 282.573L191.134 283.148L192.19 283.536L192.712 283.723L193.153 283.87L194.757 284.445L195.854 284.833L196.362 285.007L196.79 285.154L198.355 285.689L199.545 286.09L200.04 286.251L200.481 286.398L201.938 286.879L203.155 287.267L203.623 287.414L204.011 287.534L205.522 288.016L206.739 288.39L207.207 288.537L207.555 288.644L209.079 289.112L210.416 289.5L210.791 289.62L211.031 289.687L212.636 290.155L213.973 290.543L214.294 290.637H214.522L216.113 291.091L217.45 291.466L217.758 291.546H217.972L219.55 291.974L221.021 292.362H221.208H221.301L222.973 292.79L224.497 293.177H224.618L226.356 293.619L227.947 293.993L229.699 294.408L231.29 294.782L232.975 295.156L234.567 295.504L236.198 295.852L237.763 296.173L239.381 296.494L240.892 296.788L242.483 297.095L243.967 297.363L245.518 297.644L246.976 297.884L248.487 298.138L249.904 298.352L251.375 298.58L252.713 298.78L254.13 298.968L255.467 299.141L256.805 299.315L258.142 299.462L259.479 299.609L260.736 299.73L262.073 299.85L263.277 299.944L264.52 300.037L265.697 300.104H266.887H267.997H269.134H270.137H273.065L273.814 299.462C279.115 294.874 284.126 289.962 288.818 284.753C292.482 280.394 295.758 276.409 298.044 273.534C299.315 271.835 300.599 270.043 301.963 268.064L304.396 264.548L300.157 263.906H299.957L299.315 263.812H299.208L298.272 263.665L297.429 263.518L296.266 263.317L295.236 263.13L293.979 262.903L293.177 262.06L291.84 261.793L290.503 261.539L288.991 261.231L287.654 260.937L286.023 260.589L284.579 260.282L282.813 259.894H282.613L281.276 259.6L279.444 259.185L279.002 259.092L277.852 258.824L276.047 258.41H275.833L275.392 258.316L274.282 258.062L272.41 257.621L272.169 257.554L271.648 257.433L270.578 257.179L268.826 256.765L268.398 256.658L267.837 256.524L266.78 256.27L264.387 255.695H264.213L263.758 255.374L262.969 255.187L259.064 254.211L258.409 254.037L257.981 253.93L255.039 253.181L254.05 252.927L253.475 252.78L253.06 252.7L251.055 252.178L249.851 251.857L249.329 251.724L248.942 251.617L247.096 251.135L245.879 250.801L245.345 250.654L245.09 250.587L243.178 250.079L241.747 249.678L241.4 249.584L239.327 249.009L237.749 248.568H237.575L235.516 247.993L233.818 247.498L231.852 246.936L230.154 246.428L228.268 245.867L226.65 245.372L224.832 244.81L223.28 244.329L221.555 243.78L220.084 243.299L218.453 242.764L217.116 242.296L215.591 241.775L215.391 241.694L214.348 241.333L213.011 240.839H212.93L212.636 240.732L211.807 240.424L210.67 239.983H210.51L210.216 239.862L209.534 239.595L208.544 239.167L208.357 239.087L208.049 238.953L207.568 238.739C207.194 238.579 206.873 238.418 206.538 238.258H206.458L206.191 238.124L205.923 237.99C205.429 237.736 204.987 237.509 204.586 237.295L203.115 236.399L203.142 236.212Z" fill="white"/>
<path d="M96.6055 322.663C87.6124 318.488 79.0186 313.502 70.9308 307.767L67.8552 305.587L71.6128 305.333C84.1145 304.496 96.5468 302.83 108.828 300.345C132.442 295.556 155.356 287.801 177.026 277.265L177.614 276.984L178.203 277.265C178.644 277.479 223.187 298.874 266.54 300.439L270.177 300.572L267.315 302.832C261.266 307.579 254.895 311.9 248.246 315.763L247.925 315.95H247.551C200.307 314.934 180.422 309.866 159.294 304.504C155.283 303.487 151.151 302.431 146.831 301.415L145.869 301.883L97.1671 322.917L96.6055 322.663Z" fill="#AA8EC2"/>
<path d="M177.588 278.468C177.588 278.468 222.304 300.184 266.433 301.776C260.438 306.489 254.12 310.774 247.524 314.6C190.839 313.383 173.242 306.202 146.684 299.984L145.347 300.666L97.2072 321.46C88.2793 317.307 79.7444 312.357 71.7064 306.67C84.2847 305.833 96.7932 304.158 109.149 301.655C132.867 296.85 155.881 289.058 177.641 278.468M177.641 275.499L176.478 276.061C154.916 286.552 132.114 294.271 108.614 299.034C96.39 301.505 84.0158 303.163 71.5727 303.996L64.0709 304.504L70.1552 308.863C78.3187 314.643 86.9879 319.674 96.0572 323.893L97.1537 324.402L98.2502 323.92L146.39 303.126L146.912 302.872C151.057 303.862 155.042 304.878 158.947 305.854C180.088 311.203 200.04 316.325 247.444 317.341H248.193L248.848 316.967C255.549 313.073 261.97 308.716 268.064 303.929L273.801 299.422L266.499 299.155C223.414 297.604 179.139 276.328 178.697 276.114L177.534 275.553L177.641 275.499Z" fill="white"/>
<path d="M165.807 337.907C143.216 337.955 120.861 333.305 100.162 324.254L97.488 323.104L100.069 321.767C102.984 320.31 110.767 317.06 118.964 313.61C130.531 308.743 143.662 303.233 146.203 301.575L146.805 301.187L147.46 301.468C170.3 311.257 207.18 313.904 242.991 315.776L247.765 316.031L243.566 318.29C219.66 331.14 192.947 337.879 165.807 337.907Z" fill="#AA8EC2"/>
<path d="M146.979 302.752C169.537 312.42 205.014 315.188 242.964 317.167C221.235 328.829 197.145 335.416 172.505 336.432C147.864 337.449 123.314 332.869 100.697 323.038C107.678 319.561 142.459 305.721 146.979 302.752ZM146.711 299.717L145.508 300.519C143.074 302.124 129.461 307.847 118.482 312.447C109.897 316.044 102.436 319.133 99.5072 320.644L94.3723 323.185L99.6276 325.485C122.613 335.487 147.565 340.15 172.611 339.124C197.657 338.098 222.145 331.409 244.235 319.561L252.632 315.041L243.111 314.546C207.408 312.674 170.674 310.027 148.035 300.332L146.698 299.757L146.711 299.717Z" fill="white"/>
</svg>
