<svg width="436" height="467" viewBox="0 0 436 467" fill="none" xmlns="http://www.w3.org/2000/svg">
<path d="M131.781 403V358.2H152.133C156.997 358.2 161.285 359.139 164.997 361.016C168.709 362.851 171.61 365.432 173.701 368.76C175.791 372.088 176.837 376.035 176.837 380.6C176.837 385.123 175.791 389.069 173.701 392.44C171.61 395.768 168.709 398.371 164.997 400.248C161.285 402.083 156.997 403 152.133 403H131.781ZM142.149 394.488H151.621C154.607 394.488 157.189 393.933 159.365 392.824C161.583 391.672 163.29 390.051 164.485 387.96C165.722 385.869 166.341 383.416 166.341 380.6C166.341 377.741 165.722 375.288 164.485 373.24C163.29 371.149 161.583 369.549 159.365 368.44C157.189 367.288 154.607 366.712 151.621 366.712H142.149V394.488ZM204.56 403.768C198.202 403.768 193.232 401.997 189.648 398.456C186.064 394.915 184.272 389.859 184.272 383.288V358.2H194.64V382.904C194.64 387.171 195.514 390.243 197.264 392.12C199.013 393.997 201.466 394.936 204.624 394.936C207.781 394.936 210.234 393.997 211.984 392.12C213.733 390.243 214.608 387.171 214.608 382.904V358.2H224.848V383.288C224.848 389.859 223.056 394.915 219.472 398.456C215.888 401.997 210.917 403.768 204.56 403.768ZM249.813 403.768C246.229 403.768 242.795 403.299 239.509 402.36C236.224 401.379 233.579 400.12 231.573 398.584L235.093 390.776C237.013 392.141 239.275 393.272 241.877 394.168C244.523 395.021 247.189 395.448 249.877 395.448C251.925 395.448 253.568 395.256 254.805 394.872C256.085 394.445 257.024 393.869 257.621 393.144C258.219 392.419 258.517 391.587 258.517 390.648C258.517 389.453 258.048 388.515 257.109 387.832C256.171 387.107 254.933 386.531 253.397 386.104C251.861 385.635 250.155 385.208 248.277 384.824C246.443 384.397 244.587 383.885 242.709 383.288C240.875 382.691 239.189 381.923 237.653 380.984C236.117 380.045 234.859 378.808 233.877 377.272C232.939 375.736 232.469 373.773 232.469 371.384C232.469 368.824 233.152 366.499 234.517 364.408C235.925 362.275 238.016 360.589 240.789 359.352C243.605 358.072 247.125 357.432 251.349 357.432C254.165 357.432 256.939 357.773 259.669 358.456C262.4 359.096 264.811 360.077 266.901 361.4L263.701 369.272C261.611 368.077 259.52 367.203 257.429 366.648C255.339 366.051 253.291 365.752 251.285 365.752C249.28 365.752 247.637 365.987 246.357 366.456C245.077 366.925 244.16 367.544 243.605 368.312C243.051 369.037 242.773 369.891 242.773 370.872C242.773 372.024 243.243 372.963 244.181 373.688C245.12 374.371 246.357 374.925 247.893 375.352C249.429 375.779 251.115 376.205 252.949 376.632C254.827 377.059 256.683 377.549 258.517 378.104C260.395 378.659 262.101 379.405 263.637 380.344C265.173 381.283 266.411 382.52 267.349 384.056C268.331 385.592 268.821 387.533 268.821 389.88C268.821 392.397 268.117 394.701 266.709 396.792C265.301 398.883 263.189 400.568 260.373 401.848C257.6 403.128 254.08 403.768 249.813 403.768ZM284.561 403V366.648H270.225V358.2H309.265V366.648H294.929V403H284.561Z" fill="#464A66"/>
<path d="M7.1575 461V416.2H13.5575V461H7.1575ZM26.97 461V416.2H32.218L61.85 453H59.098V416.2H65.498V461H60.25L30.618 424.2H33.37V461H26.97ZM87.8035 461V421.768H72.4435V416.2H109.5V421.768H94.1395V461H87.8035ZM122.294 435.528H145.334V440.968H122.294V435.528ZM122.87 455.432H148.982V461H116.47V416.2H148.086V421.768H122.87V455.432ZM159.345 461V416.2H176.817C180.742 416.2 184.092 416.819 186.865 418.056C189.638 419.293 191.772 421.085 193.265 423.432C194.758 425.779 195.505 428.573 195.505 431.816C195.505 435.059 194.758 437.853 193.265 440.2C191.772 442.504 189.638 444.275 186.865 445.512C184.092 446.749 180.742 447.368 176.817 447.368H162.865L165.745 444.424V461H159.345ZM189.297 461L177.905 444.744H184.753L196.273 461H189.297ZM165.745 445.064L162.865 441.928H176.625C180.721 441.928 183.814 441.053 185.905 439.304C188.038 437.512 189.105 435.016 189.105 431.816C189.105 428.616 188.038 426.141 185.905 424.392C183.814 422.643 180.721 421.768 176.625 421.768H162.865L165.745 418.568V445.064ZM199.061 461L219.349 416.2H225.685L246.037 461H239.317L221.205 419.784H223.765L205.653 461H199.061ZM207.701 449.8L209.429 444.68H234.645L236.501 449.8H207.701ZM272.127 461.512C268.714 461.512 265.556 460.957 262.655 459.848C259.796 458.696 257.3 457.096 255.167 455.048C253.076 452.957 251.434 450.525 250.239 447.752C249.044 444.979 248.447 441.928 248.447 438.6C248.447 435.272 249.044 432.221 250.239 429.448C251.434 426.675 253.098 424.264 255.231 422.216C257.364 420.125 259.86 418.525 262.719 417.416C265.62 416.264 268.778 415.688 272.191 415.688C275.647 415.688 278.826 416.285 281.727 417.48C284.671 418.632 287.167 420.36 289.215 422.664L285.055 426.696C283.348 424.904 281.428 423.581 279.295 422.728C277.162 421.832 274.879 421.384 272.447 421.384C269.93 421.384 267.583 421.811 265.407 422.664C263.274 423.517 261.418 424.712 259.839 426.248C258.26 427.784 257.023 429.619 256.127 431.752C255.274 433.843 254.847 436.125 254.847 438.6C254.847 441.075 255.274 443.379 256.127 445.512C257.023 447.603 258.26 449.416 259.839 450.952C261.418 452.488 263.274 453.683 265.407 454.536C267.583 455.389 269.93 455.816 272.447 455.816C274.879 455.816 277.162 455.389 279.295 454.536C281.428 453.64 283.348 452.275 285.055 450.44L289.215 454.472C287.167 456.776 284.671 458.525 281.727 459.72C278.826 460.915 275.626 461.512 272.127 461.512ZM306.741 461V421.768H291.381V416.2H328.437V421.768H313.077V461H306.741ZM335.408 461V416.2H341.808V461H335.408ZM367.711 461L347.998 416.2H354.911L373.023 457.544H369.055L387.295 416.2H393.695L374.047 461H367.711ZM405.232 435.528H428.272V440.968H405.232V435.528ZM405.808 455.432H431.92V461H399.408V416.2H431.024V421.768H405.808V455.432Z" fill="#855FAD"/>
<path d="M328.007 156.68L378.939 151.12L381.316 150.863C378.659 132.544 372.891 114.807 364.257 98.4068L306.696 100.903L358.81 88.8386C350.458 75.2786 340.184 62.9841 328.305 52.3337L256.321 49.4322L321.8 46.7331C287.771 19.308 244.186 6.40886 200.601 10.8638C157.016 15.3187 116.987 36.7642 89.2896 70.4984L113.533 74.0342L185.844 84.5876L112.8 82.0235L81.3985 80.9168C73.1657 92.7119 66.5263 105.529 61.6503 119.041L113.099 127.692L58.7709 128.056C50.7806 155.042 49.8457 183.607 56.0545 211.052L128.202 217.571L59.5043 223.778C70.2728 257.844 91.9028 287.504 121.129 308.281C150.355 329.057 185.59 339.823 221.515 338.951C257.44 338.079 292.105 325.618 320.275 303.449C348.446 281.28 368.593 250.607 377.676 216.059L354.342 214.71L303.41 211.727L354.342 208.758L379.713 207.274C381.907 196.497 383.008 185.529 383 174.534C383 170.539 382.855 166.581 382.565 162.658L378.912 162.253L328.007 156.68Z" fill="#464A66"/>
<path d="M348.253 271.287C345.765 274.403 342.395 278.481 339.066 282.466C342.248 278.883 345.311 275.156 348.253 271.287Z" fill="#464A66"/>
<path d="M98.5132 286.585C91.736 279.417 85.6138 271.657 80.22 263.398L78.9897 261.512L81.6642 261.298C82.2526 261.298 82.8276 261.205 83.095 261.164C104.37 257.982 122.49 251.684 136.985 242.443L137.573 242.056L138.215 242.323C138.55 242.47 172.194 256.417 191.356 262.582C193.095 263.13 194.699 263.625 196.157 264.039C197.989 264.561 199.54 264.949 200.757 265.176L205.919 266.072L201.238 267.797C188.411 272.453 175.346 276.425 162.098 279.698C141.428 283.52 120.525 285.951 99.5295 286.973H98.9277L98.5132 286.585Z" fill="#AA8EC2"/>
<path d="M137.707 243.593C137.707 243.593 171.512 257.634 190.955 263.879C192.694 264.441 194.312 264.935 195.796 265.35C197.615 265.871 199.206 266.273 200.503 266.513H200.77C187.991 271.153 174.975 275.112 161.777 278.374C141.199 282.17 120.39 284.587 99.4893 285.609C92.7666 278.532 86.6935 270.866 81.3432 262.702C82.0787 262.702 82.9345 262.582 83.2956 262.528C103.996 259.439 122.356 253.395 137.707 243.593ZM137.44 240.585L136.263 241.333C121.928 250.493 103.982 256.738 82.9078 259.881C82.6938 259.881 81.9717 259.974 81.4903 260.014H81.1293L76.6362 260.375L79.07 264.173C84.5177 272.474 90.6981 280.27 97.537 287.468L98.3661 288.337H99.5696C120.605 287.314 141.548 284.883 162.258 281.062H162.339H162.419C175.712 277.778 188.822 273.792 201.693 269.121L210.947 265.738L201.252 263.973H201.172H201.011C199.821 263.745 198.337 263.371 196.518 262.863C195.181 262.462 193.523 261.98 191.771 261.418C172.662 255.267 139.058 241.36 138.723 241.2L137.386 240.665L137.44 240.585Z" fill="white"/>
<path d="M352.492 266.353C340.684 264.267 303.095 254.197 299.457 252.379L296.596 250.948L299.631 249.918C310.075 246.388 330.681 235.864 338.237 229.526L339.4 228.55L340.229 229.887C340.499 230.308 340.799 230.711 341.125 231.09L341.312 231.304L341.593 231.598C341.794 231.839 342.008 232.066 342.235 232.307L342.556 232.588L342.89 232.896L343.559 233.511L344.201 234.019L344.321 234.112L345.057 234.687L345.779 235.209C346.086 235.423 346.38 235.637 346.701 235.837L347.49 236.346L348.453 236.947L349.282 237.442L350.285 238.004L351.154 238.472C351.489 238.659 351.836 238.833 352.184 239.007C352.532 239.18 352.759 239.314 353.053 239.448L354.096 239.956L354.979 240.371L356.008 240.825L356.891 241.213L357.894 241.628L358.75 241.975L359.726 242.35L360.542 242.657L362.213 243.259L363.778 243.767L364.553 243.994L366.091 244.436L365.409 245.88C362.024 252.795 358.154 259.462 353.829 265.831L353.347 266.553L352.492 266.353Z" fill="#AA8EC2"/>
<path d="M339.106 230.555C339.402 231.025 339.733 231.472 340.095 231.893C340.216 232.04 340.363 232.187 340.497 232.334C340.63 232.481 341.018 232.922 341.299 233.203C341.58 233.484 341.673 233.551 341.861 233.711L342.703 234.473C342.917 234.661 343.144 234.835 343.372 235.008C343.599 235.182 343.947 235.476 344.268 235.704C344.589 235.931 344.762 236.065 345.016 236.239L345.953 236.894L346.768 237.429L347.758 238.044L348.614 238.539L349.643 239.127L350.526 239.608L351.569 240.157L352.465 240.598L353.521 241.106L354.43 241.534L355.474 242.002L356.369 242.39L357.386 242.818L358.255 243.165L359.244 243.553L360.074 243.861L361.01 244.195L361.799 244.476L362.668 244.757L363.376 244.984L364.192 245.225C360.826 252.082 356.983 258.696 352.692 265.016C340.416 262.849 303.215 252.78 300.032 251.175C310.73 247.552 331.43 236.934 339.079 230.542M339.681 226.53L337.354 228.483C329.892 234.728 309.527 245.131 299.177 248.621L293.092 250.681L298.829 253.556C302.52 255.388 340.376 265.591 352.224 267.637L353.936 267.944L354.912 266.513C359.263 260.106 363.164 253.403 366.586 246.455L368.003 243.567L364.914 242.697L364.139 242.47L363.631 242.31H363.47L362.628 242.029L361.999 241.815H361.879L360.969 241.494L360.181 241.186L359.218 240.812L358.375 240.478L357.386 240.063L356.517 239.689L355.514 239.234L354.644 238.833L353.628 238.338L352.759 237.91L351.756 237.375L350.9 236.921L349.937 236.359H349.857L349.108 235.918C348.801 235.744 348.507 235.557 348.212 235.356L348.025 235.249L347.41 234.848C347.143 234.674 346.889 234.487 346.634 234.3L346.528 234.233L346.327 234.086C346.153 233.979 345.993 233.858 345.832 233.738L345.137 233.203L345.003 233.096L344.789 232.922L344.401 232.615L343.786 232.053L343.652 231.933L343.425 231.719L343.158 231.478C342.93 231.251 342.743 231.037 342.543 230.81L342.462 230.729C342.398 230.647 342.326 230.571 342.248 230.502L342.115 230.355C341.831 230.014 341.568 229.657 341.326 229.285L339.681 226.731V226.53Z" fill="white"/>
<path d="M352.184 265.925H352.117C350.86 267.708 349.572 269.491 348.253 271.274C350.793 268.118 352.425 265.952 352.184 265.925Z" fill="#AA8EC2"/>
<path d="M119.08 304.945L118.732 304.678C112.756 300.161 107.091 295.247 101.776 289.968L99.8237 288.029L103.528 287.575C123.037 285.325 142.385 281.846 161.456 277.158C174.61 273.911 187.582 269.965 200.316 265.337C221.243 257.674 239.483 248.581 254.527 238.298L255.235 237.817L255.971 238.258C256.372 238.499 256.84 238.753 257.308 239.007L257.87 239.287L259.02 239.822L259.969 240.237C260.317 240.384 260.651 240.544 261.026 240.692L262.149 241.146L263.326 241.601L264.462 242.029L265.893 242.55L268.688 243.54L270.239 244.061L271.697 244.543L274.906 245.586L278.289 246.629L281.806 247.685L286.125 249.022L291.006 250.36L294.857 251.416L298.775 252.472L302.787 253.516L306.799 254.545L310.744 255.548L315.397 256.698L322.31 258.383L326.041 259.252L331.39 260.482L334.573 261.178L337.729 261.873L340.818 262.515L343.612 263.09L346.167 263.585L348.48 264.013L350.499 264.36L352.411 264.641L354.511 264.975L353.307 266.727C351.97 268.693 350.633 270.471 349.416 272.156C347.103 275.031 343.84 279.016 340.189 283.376C335.529 288.563 330.549 293.453 325.279 298.018L324.905 298.339H322.444H321.388H320.265H319.155H317.978L316.828 298.272L315.598 298.179L314.394 298.085L313.124 297.965L311.947 297.858L310.543 297.711L309.206 297.564L307.868 297.39L305.194 297.029L302.346 296.601L301.009 296.387L298.053 295.892L295.031 295.357L291.942 294.755L288.786 294.114L285.564 293.418L282.314 292.683L278.985 291.894L275.615 291.051L272.205 290.155L268.755 289.206L265.265 288.216L261.748 287.173L258.217 286.09L254.647 284.954L251.077 283.763L247.493 282.533L243.882 281.196L241.823 280.447L240.272 279.872L236.661 278.535L233.72 277.358L233.051 277.104L229.935 275.767L227.702 276.583H227.595L225.108 277.519L222.567 278.522L220.2 279.471L219.545 278.294L220.053 279.538L217.82 280.461L217.165 279.284L217.673 280.514L215.48 281.45L214.811 280.273L215.346 281.504L208.486 284.445L206.2 285.422L203.886 286.384L201.506 287.347L199.246 288.243L199.032 288.323L196.732 289.206L196.05 288.029L196.518 289.286L194.138 290.142L193.897 290.236L191.437 291.091L191.156 291.185L188.602 292.027L188.053 290.797L188.468 292.134H188.294L185.62 292.977L185.285 293.071L182.477 293.9L182.13 293.993L179.174 294.822L178.8 294.916L175.684 295.718L175.283 295.825C174.213 296.093 173.117 296.36 171.993 296.614L171.552 296.721L168.089 297.51L167.688 297.59L163.93 298.393L163.422 298.5L159.531 299.262L158.982 299.369L154.864 300.118L154.275 300.225L149.903 300.973L149.274 301.067C147.776 301.321 146.239 301.562 144.647 301.803L143.992 301.91L139.071 302.645L138.389 302.739L133.174 303.461L132.452 303.554L126.943 304.263L126.127 304.357C124.241 304.597 122.302 304.825 120.31 305.052H119.842L119.08 304.945Z" fill="#AA8EC2"/>
<path d="M255.289 239.328C255.704 239.582 256.198 239.849 256.733 240.116L257.308 240.397L258.485 240.959L259.327 241.32L260.544 241.855L261.547 242.256L262.884 242.778L264.034 243.205L265.479 243.74L266.816 244.182L268.354 244.73L269.691 245.198L271.336 245.733L272.807 246.214L274.558 246.776L276.11 247.257L277.941 247.832L279.573 248.327L281.472 248.889L283.17 249.397L285.149 249.972L286.861 250.453L288.92 251.042L290.699 251.536L292.771 252.111L294.563 252.606L296.729 253.181L298.495 253.663L300.728 254.251L302.453 254.706L304.846 255.321L306.411 255.735L309.366 256.484L310.369 256.738L314.287 257.714L315.624 258.035L318.192 258.664L319.81 259.052L321.99 259.573L323.594 259.947L325.72 260.442L327.272 260.803L329.304 261.271L330.869 261.632L332.741 262.047L334.265 262.381L336.044 262.769L337.488 263.077L339.133 263.438L340.47 263.718L341.981 264.039L343.318 264.293L344.655 264.574L345.832 264.788L347.103 265.029L348.146 265.216L349.269 265.417L350.192 265.564L351.168 265.724L351.943 265.831H352.117C350.86 267.614 349.572 269.397 348.253 271.18C345.765 274.296 342.396 278.374 339.066 282.359C334.475 287.494 329.562 292.331 324.356 296.841H322.444H321.401H320.305H319.208H318.045L316.908 296.761L315.691 296.681L314.501 296.574L313.231 296.467L311.987 296.347L310.65 296.2L309.313 296.052L307.975 295.892L306.638 295.718L305.234 295.531L303.897 295.33L302.453 295.116L301.035 294.889L299.551 294.648L298.107 294.408L296.569 294.127L295.111 293.859L293.533 293.565L292.022 293.271L290.431 292.95L288.88 292.629L287.262 292.281L285.684 291.947L284.026 291.573L282.435 291.198L280.723 290.797L279.132 290.409L277.393 289.981L275.775 289.58L274.01 289.112L272.379 288.684L270.6 288.203L268.942 287.748L267.137 287.24L265.465 286.759L263.606 286.13L261.922 285.635L260.076 285.06L258.405 284.552L256.519 283.951L254.848 283.416L252.962 282.787L251.291 282.226L249.312 281.557L247.72 280.995C247.038 280.768 246.383 280.514 245.688 280.273L244.123 279.712L242.077 278.963L240.526 278.388L238.346 277.559L237.009 277.01L234.602 276.061L233.412 275.58L229.828 274.109L227.087 275.098L224.493 276.074C223.65 276.395 222.808 276.716 221.992 277.051L219.478 278.107H219.331L217.085 279.043H216.951L214.744 279.979H214.597L212.458 280.902L212.257 280.982L210.505 281.744L207.965 282.827L207.764 282.921L205.638 283.817L205.464 283.897L203.325 284.793H203.137L200.958 285.689H200.77L198.551 286.572L198.337 286.652L196.05 287.521L195.836 287.601L193.483 288.457L193.229 288.551L190.781 289.393L190.514 289.487L187.973 290.329L187.679 290.423C186.823 290.704 185.927 290.984 185.005 291.252L184.684 291.345C183.788 291.626 182.852 291.894 181.902 292.174L181.555 292.268C180.592 292.549 179.616 292.816 178.613 293.084L178.252 293.177L175.149 293.98L174.735 294.087L171.472 294.876L171.031 294.983L167.581 295.758L167.099 295.865L163.449 296.641L162.94 296.734C161.684 297.002 160.4 297.256 159.076 297.51L158.514 297.604L154.409 298.366L153.834 298.459C152.417 298.714 150.959 298.968 149.475 299.208L148.846 299.315L144.233 300.051L143.578 300.144L138.67 300.88L137.988 300.973L132.786 301.696L132.051 301.789L126.555 302.484L125.752 302.591L119.949 303.287H119.548H119.481C113.549 298.806 107.933 293.923 102.672 288.671C122.562 286.418 142.286 282.889 161.724 278.107C174.929 274.951 187.959 271.099 200.757 266.567C219.478 259.693 238.48 250.828 255.235 239.394M255.142 236.212L253.724 237.188C238.761 247.404 220.628 256.444 199.834 264.053C187.125 268.666 174.181 272.603 161.055 275.847C142.037 280.526 122.743 283.996 103.287 286.237L102.324 286.358L96.855 287.013L100.76 290.904C106.111 296.235 111.816 301.199 117.836 305.761L118.558 306.296H119.828H120.056H120.23C122.222 306.068 124.161 305.841 126.06 305.6L126.862 305.507L132.385 304.798L133.107 304.704L138.336 303.982L138.897 303.902H139.018L143.952 303.166L144.487 303.086H144.621C146.198 302.846 147.75 302.605 149.261 302.351L149.943 302.177C151.44 301.936 152.898 301.682 154.315 301.428L154.717 301.361H154.904L159.036 300.599L159.477 300.519H159.597C160.935 300.265 162.272 300.011 163.502 299.743H163.89H164.01L167.701 298.954L168.009 298.887H168.182L171.673 298.098L171.967 298.018H172.114L175.417 297.216L175.738 297.136H175.831C176.901 296.868 177.944 296.601 178.96 296.32H179.214H179.335L182.303 295.504L182.544 295.424H182.665L185.513 294.154L185.727 294.087H185.847L188.522 293.258L188.695 293.191H188.816L191.41 292.335L191.584 292.268H191.677L194.151 291.399H194.298H194.405L196.799 290.516H196.919H197.013L199.326 289.634H199.447H199.54L201.8 288.751H201.88H201.974L204.194 287.855H204.287H204.368L206.534 286.959H206.614H206.708L208.834 286.063L208.968 285.997H209.048L211.589 284.9H211.749L213.34 284.218H213.434H213.541L215.68 283.295H215.761L217.94 282.373H218.007L220.24 281.45H220.388L222.701 280.514L225.215 279.524L227.822 278.535L229.588 277.893L232.262 278.989L232.984 279.27L233.466 279.458L233.786 279.591L235.886 280.42L236.768 280.768L237.303 280.969L237.745 281.142L239.51 281.811L240.539 282.199L241.061 282.386L241.542 282.573L243.134 283.148L244.19 283.536L244.712 283.723L245.153 283.87L246.757 284.445L247.854 284.833L248.362 285.007L248.79 285.154L250.355 285.689L251.545 286.09L252.04 286.251L252.481 286.398L253.938 286.879L255.155 287.267L255.623 287.414L256.011 287.534L257.522 288.016L258.739 288.39L259.207 288.537L259.555 288.644L261.079 289.112L262.416 289.5L262.791 289.62L263.031 289.687L264.636 290.155L265.973 290.543L266.294 290.637H266.522L268.113 291.091L269.45 291.466L269.758 291.546H269.972L271.55 291.974L273.021 292.362H273.208H273.301L274.973 292.79L276.497 293.177H276.618L278.356 293.619L279.947 293.993L281.699 294.408L283.29 294.782L284.975 295.156L286.567 295.504L288.198 295.852L289.763 296.173L291.381 296.494L292.892 296.788L294.483 297.095L295.967 297.363L297.518 297.644L298.976 297.884L300.487 298.138L301.904 298.352L303.375 298.58L304.713 298.78L306.13 298.968L307.467 299.141L308.805 299.315L310.142 299.462L311.479 299.609L312.736 299.73L314.073 299.85L315.277 299.944L316.52 300.037L317.697 300.104H318.887H319.997H321.134H322.137H325.065L325.814 299.462C331.115 294.874 336.126 289.962 340.818 284.753C344.482 280.394 347.758 276.409 350.044 273.534C351.315 271.835 352.599 270.043 353.963 268.064L356.396 264.548L352.157 263.906H351.957L351.315 263.812H351.208L350.272 263.665L349.429 263.518L348.266 263.317L347.236 263.13L345.979 262.903L345.177 262.06L343.84 261.793L342.503 261.539L340.991 261.231L339.654 260.937L338.023 260.589L336.579 260.282L334.813 259.894H334.613L333.276 259.6L331.444 259.185L331.002 259.092L329.852 258.824L328.047 258.41H327.833L327.392 258.316L326.282 258.062L324.41 257.621L324.169 257.554L323.648 257.433L322.578 257.179L320.826 256.765L320.398 256.658L319.837 256.524L318.78 256.27L316.387 255.695H316.213L315.758 255.374L314.969 255.187L311.064 254.211L310.409 254.037L309.981 253.93L307.039 253.181L306.05 252.927L305.475 252.78L305.06 252.7L303.055 252.178L301.851 251.857L301.329 251.724L300.942 251.617L299.096 251.135L297.879 250.801L297.345 250.654L297.09 250.587L295.178 250.079L293.747 249.678L293.4 249.584L291.327 249.009L289.749 248.568H289.575L287.516 247.993L285.818 247.498L283.852 246.936L282.154 246.428L280.268 245.867L278.65 245.372L276.832 244.81L275.28 244.329L273.555 243.78L272.084 243.299L270.453 242.764L269.116 242.296L267.591 241.775L267.391 241.694L266.348 241.333L265.011 240.839H264.93L264.636 240.732L263.807 240.424L262.67 239.983H262.51L262.216 239.862L261.534 239.595L260.544 239.167L260.357 239.087L260.049 238.953L259.568 238.739C259.194 238.579 258.873 238.418 258.538 238.258H258.458L258.191 238.124L257.923 237.99C257.429 237.736 256.987 237.509 256.586 237.295L255.115 236.399L255.142 236.212Z" fill="white"/>
<path d="M148.605 322.663C139.612 318.488 131.019 313.502 122.931 307.767L119.855 305.587L123.613 305.333C136.115 304.496 148.547 302.83 160.828 300.345C184.442 295.556 207.356 287.801 229.026 277.265L229.614 276.984L230.203 277.265C230.644 277.479 275.187 298.874 318.54 300.439L322.177 300.572L319.315 302.832C313.266 307.579 306.895 311.9 300.246 315.763L299.925 315.95H299.551C252.307 314.934 232.422 309.866 211.294 304.504C207.283 303.487 203.151 302.431 198.831 301.415L197.869 301.883L149.167 322.917L148.605 322.663Z" fill="#AA8EC2"/>
<path d="M229.588 278.468C229.588 278.468 274.304 300.184 318.433 301.776C312.438 306.489 306.12 310.774 299.524 314.6C242.839 313.383 225.242 306.202 198.684 299.984L197.347 300.666L149.207 321.46C140.279 317.307 131.744 312.357 123.706 306.67C136.285 305.833 148.793 304.158 161.149 301.655C184.867 296.85 207.881 289.058 229.641 278.468M229.641 275.499L228.478 276.061C206.916 286.552 184.114 294.271 160.614 299.034C148.39 301.505 136.016 303.163 123.573 303.996L116.071 304.504L122.155 308.863C130.319 314.643 138.988 319.674 148.057 323.893L149.154 324.402L150.25 323.92L198.39 303.126L198.912 302.872C203.057 303.862 207.042 304.878 210.947 305.854C232.088 311.203 252.04 316.325 299.444 317.341H300.193L300.848 316.967C307.549 313.073 313.97 308.716 320.064 303.929L325.801 299.422L318.499 299.155C275.414 297.604 231.139 276.328 230.697 276.114L229.534 275.553L229.641 275.499Z" fill="white"/>
<path d="M217.807 337.907C195.216 337.955 172.861 333.305 152.162 324.254L149.488 323.104L152.069 321.767C154.984 320.31 162.767 317.06 170.964 313.61C182.531 308.743 195.662 303.233 198.203 301.575L198.805 301.187L199.46 301.468C222.3 311.257 259.18 313.904 294.991 315.776L299.765 316.031L295.566 318.29C271.66 331.14 244.947 337.879 217.807 337.907Z" fill="#AA8EC2"/>
<path d="M198.979 302.752C221.537 312.42 257.014 315.188 294.964 317.167C273.235 328.829 249.145 335.416 224.505 336.432C199.864 337.449 175.314 332.869 152.697 323.038C159.678 319.561 194.459 305.721 198.979 302.752ZM198.711 299.717L197.508 300.519C195.074 302.124 181.461 307.847 170.482 312.447C161.897 316.044 154.436 319.133 151.507 320.644L146.372 323.185L151.628 325.485C174.613 335.487 199.565 340.15 224.611 339.124C249.657 338.098 274.145 331.409 296.235 319.561L304.632 315.041L295.111 314.546C259.408 312.674 222.674 310.027 200.035 300.332L198.698 299.757L198.711 299.717Z" fill="white"/>
</svg>
