<svg xmlns="http://www.w3.org/2000/svg" viewBox="0 0 243.74 244.72"><defs><style>.cls-1,.cls-4{fill:#464a66;}.cls-2{fill:#aa8ec2;}.cls-3{fill:#fff;}.cls-4{opacity:0.5;}</style></defs><g id="Слой_2" data-name="Слой 2"><g id="Слой_1-2" data-name="Слой 1"><path class="cls-1" d="M203.23,108.65l37.5-4.12,1.75-.19a121.12,121.12,0,0,0-12.56-38.87l-42.38,1.85,38.37-8.94a122.72,122.72,0,0,0-22.46-27.05l-53-2.15,48.21-2A121.86,121.86,0,0,0,27.47,44.79l17.85,2.62,53.24,7.82-53.78-1.9-23.12-.82A121.58,121.58,0,0,0,7.12,80.76L45,87.17l-40,.27A122.62,122.62,0,0,0,3,148.94l53.12,4.83-50.58,4.6a121.91,121.91,0,0,0,234.26-5.72l-17.18-1-37.5-2.21,37.5-2.2,18.68-1.1a121.94,121.94,0,0,0,2.42-24.26q0-4.44-.32-8.8l-2.69-.3Z"/><path class="cls-1" d="M219.3,193.9c-1.86,2.33-4.38,5.38-6.87,8.36Q216,198.24,219.3,193.9Z"/><path class="cls-1" d="M109,190.36l-.23,0,.2,0Z"/><path class="cls-2" d="M32.54,205.34A123.65,123.65,0,0,1,18.86,188l-.92-1.41,2-.16c.44,0,.87-.07,1.07-.1,15.91-2.38,29.46-7.09,40.3-14l.44-.29.48.2c.25.11,25.41,10.54,39.74,15.15,1.3.41,2.5.78,3.59,1.09,1.37.39,2.53.68,3.44.85l3.86.67-3.5,1.29a288.94,288.94,0,0,1-29.27,8.9,351.31,351.31,0,0,1-46.79,5.44l-.45,0Z"/><path class="cls-3" d="M61.85,173.19s25.28,10.5,39.82,15.17c1.3.42,2.51.79,3.62,1.1,1.36.39,2.55.69,3.52.87l.2,0a287.79,287.79,0,0,1-29.16,8.87,351.49,351.49,0,0,1-46.58,5.41A121.82,121.82,0,0,1,19.7,187.48c.55,0,1.19-.09,1.46-.13,15.48-2.31,29.21-6.83,40.69-14.16m-.2-2.25-.88.56c-10.72,6.85-24.14,11.52-39.9,13.87-.16,0-.7.07-1.06.1l-.27,0-3.36.27L18,188.58A124.32,124.32,0,0,0,31.81,206l.62.65.9,0a352.88,352.88,0,0,0,46.88-5.44l.06,0h.06a290.13,290.13,0,0,0,29.37-8.93l6.92-2.53-7.25-1.32h-.06l-.12,0c-.89-.17-2-.45-3.36-.83-1-.3-2.24-.66-3.55-1.08-14.29-4.6-39.42-15-39.67-15.12l-1-.4Z"/><path class="cls-2" d="M222.47,190.21c-8.83-1.56-36.94-9.09-39.66-10.45l-2.14-1.07,2.27-.77c7.81-2.64,23.22-10.51,28.87-15.25l.87-.73.62,1a8,8,0,0,0,.67.9l.14.16.21.22c.15.18.31.35.48.53l.24.21.25.23.5.46.48.38.09.07.55.43.54.39c.23.16.45.32.69.47l.59.38.72.45.62.37.75.42.65.35c.25.14.51.27.77.4s.43.23.65.33l.78.38.66.31.77.34.66.29.75.31.64.26.73.28.61.23,1.25.45,1.17.38.58.17,1.15.33-.51,1.08a122.23,122.23,0,0,1-8.66,14.92l-.36.54Z"/><path class="cls-3" d="M212.46,163.44a8.3,8.3,0,0,0,.74,1c.09.11.2.22.3.33s.39.44.6.65.28.26.42.38l.63.57c.16.14.33.27.5.4s.43.35.67.52.37.27.56.4l.7.49.61.4.74.46.64.37.77.44.66.36.78.41.67.33.79.38.68.32.78.35.67.29.76.32.65.26.74.29.62.23.7.25.59.21.65.21.53.17.61.18h0a122.18,122.18,0,0,1-8.6,14.8c-9.18-1.62-37-9.15-39.38-10.35,8-2.71,23.48-10.65,29.2-15.43m.45-3-1.74,1.46c-5.58,4.67-20.81,12.45-28.55,15.06l-4.55,1.54,4.29,2.15c2.76,1.37,31.07,9,39.93,10.53l1.28.23.73-1.07a125.1,125.1,0,0,0,8.73-15l1.06-2.16-2.31-.65-.58-.17-.38-.12-.12,0-.63-.21-.47-.16-.09,0-.68-.24-.59-.23-.72-.28-.63-.25-.74-.31-.65-.28-.75-.34-.65-.3-.76-.37-.65-.32-.75-.4-.64-.34-.72-.42-.06,0-.56-.33c-.23-.13-.45-.27-.67-.42l-.14-.08-.46-.3c-.2-.13-.39-.27-.58-.41l-.08-.05-.15-.11c-.13-.08-.25-.17-.37-.26l-.52-.4-.1-.08-.16-.13-.29-.23-.46-.42-.1-.09-.17-.16-.2-.18c-.17-.17-.31-.33-.46-.5l-.06-.06a1.29,1.29,0,0,0-.16-.17l-.1-.11a8.53,8.53,0,0,1-.59-.8l-1.23-1.91Z"/><path class="cls-4" d="M202.25,213.08Z"/><path class="cls-2" d="M222.24,189.89h-.05q-1.41,2-2.89,4C221.2,191.53,222.42,189.91,222.24,189.89Z"/><path class="cls-2" d="M47.92,219.07l-.26-.2a124.54,124.54,0,0,1-12.68-11l-1.46-1.45,2.77-.34a348.73,348.73,0,0,0,43.32-7.79,284.8,284.8,0,0,0,29.06-8.84c15.65-5.73,29.29-12.53,40.54-20.22l.53-.36.55.33c.3.18.65.37,1,.56l.42.21.86.4.71.31c.26.11.51.23.79.34l.84.34.88.34.85.32,1.07.39,2.09.74,1.16.39,1.09.36,2.4.78,2.53.78,2.63.79,3.23,1,3.65,1,2.88.79,2.93.79,3,.78,3,.77,2.95.75,3.48.86,5.17,1.26,2.79.65,4,.92,2.38.52,2.36.52,2.31.48,2.09.43,1.91.37,1.73.32,1.51.26,1.43.21,1.57.25-.9,1.31c-1,1.47-2,2.8-2.91,4.06-1.73,2.15-4.17,5.13-6.9,8.39a125.09,125.09,0,0,1-11.15,10.95l-.28.24H200l-.79,0-.84,0-.83,0-.88,0-.86-.05-.92-.07-.9-.07-.95-.09-.88-.08-1.05-.11-1-.11-1-.13-2-.27-2.13-.32-1-.16-2.21-.37-2.26-.4-2.31-.45-2.36-.48-2.41-.52-2.43-.55-2.49-.59-2.52-.63-2.55-.67-2.58-.71-2.61-.74-2.63-.78-2.64-.81-2.67-.85-2.67-.89-2.68-.92-2.7-1-1.54-.56-1.16-.43-2.7-1-2.2-.88-.5-.19-2.33-1-1.67.61-.08,0-1.86.7-1.9.75-1.77.71-.49-.88.38.93-1.67.69-.49-.88.38.92-1.64.7-.5-.88.4.92-5.13,2.2-1.71.73-1.73.72-1.78.72-1.69.67-.16.06-1.72.66-.51-.88.35.94-1.78.64-.18.07-1.84.64-.21.07-1.91.63-.41-.92.31,1-.13,0-2,.63-.25.07-2.1.62-.26.07-2.21.62-.28.07-2.33.6-.3.08c-.8.2-1.62.4-2.46.59l-.33.08-2.59.59-.3.06-2.81.6-.38.08-2.91.57-.41.08-3.08.56-.44.08-3.27.56-.47.07c-1.12.19-2.27.37-3.46.55l-.49.08-3.68.55-.51.07-3.9.54-.54.07-4.12.53-.61.07c-1.41.18-2.86.35-4.35.52l-.35,0Z"/><path class="cls-3" d="M149.78,170c.31.19.68.39,1.08.59l.43.21.88.42.63.27.91.4.75.3,1,.39.86.32,1.08.4,1,.33,1.15.41,1,.35,1.23.4,1.1.36,1.31.42,1.16.36,1.37.43,1.22.37,1.42.42,1.27.38,1.48.43,1.28.36,1.54.44,1.33.37,1.55.43,1.34.37,1.62.43,1.32.36,1.67.44,1.29.34,1.79.46,1.17.31,2.21.56.75.19,2.93.73,1,.24,1.92.47,1.21.29,1.63.39,1.2.28,1.59.37,1.16.27,1.52.35,1.17.27,1.4.31,1.14.25,1.33.29,1.08.23,1.23.27,1,.21,1.13.24,1,.19,1,.21.88.16.95.18.78.14.84.15.69.11.73.12.58.08.13,0q-1.41,2-2.89,4c-1.86,2.33-4.38,5.38-6.87,8.36a121.35,121.35,0,0,1-11,10.83H200l-.78,0-.82,0-.82,0-.87,0-.85-.06-.91-.06-.89-.08-.95-.08-.93-.09-1-.11-1-.11-1-.12-1-.13-1.05-.14-1-.15-1.08-.16-1.06-.17-1.11-.18-1.08-.18-1.15-.21-1.09-.2-1.18-.22-1.13-.22-1.19-.24-1.16-.24-1.21-.26-1.18-.25-1.24-.28-1.19-.28-1.28-.3-1.19-.29-1.3-.32-1.21-.3-1.32-.35-1.22-.32-1.33-.36-1.24-.34-1.35-.38-1.25-.36L156,205l-1.26-.37-1.38-.43-1.25-.38-1.41-.45-1.25-.4-1.41-.47-1.25-.42-1.48-.5-1.19-.42c-.51-.17-1-.36-1.52-.54l-1.17-.42-1.53-.56-1.16-.43-1.63-.62-1-.41-1.8-.71-.89-.36-2.68-1.1-2.05.74h0l-1.94.73,0,0c-.63.24-1.26.48-1.87.73h0L123,199l-.11,0-1.68.7-.1,0-1.65.7-.11,0-1.6.69-.15.06-1.31.57-1.9.81-.15.07-1.59.67-.13.06-1.6.67-.14,0-1.63.67-.14,0-1.66.66-.16.06-1.71.65-.16.06-1.76.64-.19.07-1.83.63-.2.07-1.9.63-.22.07c-.64.21-1.31.42-2,.62l-.24.07c-.67.21-1.37.41-2.08.62l-.26.07c-.72.21-1.45.41-2.2.61l-.27.07-2.32.6-.31.08-2.44.59-.33.08-2.58.58-.36.08-2.73.58-.38.07c-.94.2-1.9.39-2.89.58l-.42.07-3.07.57-.43.07c-1.06.19-2.15.38-3.26.56l-.47.08-3.45.55-.49.07-3.67.55-.51.07-3.89.54-.55.07-4.11.52-.6.08-4.34.52-.3,0h-.05a121.08,121.08,0,0,1-12.57-10.93,349.56,349.56,0,0,0,44.16-7.9A287.79,287.79,0,0,0,109,190.37h0c14-5.14,28.21-11.77,40.74-20.32m-.07-2.38-1.06.73c-11.19,7.64-24.75,14.4-40.3,20.09a286.32,286.32,0,0,1-29,8.82,347.14,347.14,0,0,1-43.2,7.77l-.72.09-4.09.49,2.92,2.91a125.34,125.34,0,0,0,12.77,11.11l.54.4h.95l.17,0,.13,0c1.49-.17,2.94-.34,4.36-.52l.6-.07,4.13-.53.54-.07,3.91-.54.42-.06h.09l3.69-.55.4-.06.1,0c1.18-.18,2.34-.36,3.47-.55L71,217c1.12-.18,2.21-.37,3.27-.56l.3-.05.14,0,3.09-.57.33-.06.09,0c1-.19,2-.38,2.92-.58l.29,0,.09,0,2.76-.59.23-.05.13,0,2.61-.59.22-.06.11,0,2.47-.6.24-.06.07,0c.8-.2,1.58-.4,2.34-.61l.19,0,.09,0,2.22-.61.18-.06.09,0L97.6,211l.16-.05.09,0,2-.62.13-.05.09,0,1.94-.64.13-.05.07,0,1.85-.65.11,0,.08,0,1.79-.66.09,0,.07,0,1.73-.66.09,0,.07,0,1.69-.66.06,0,.07,0,1.66-.67.07,0,.06,0,1.62-.67.06,0,.07,0,1.59-.67.1-.05.06,0,1.9-.82.12,0,1.19-.51.07,0,.08,0,1.6-.69,0,0,.06,0,1.63-.69,0,0,.05,0,1.67-.69.11,0,1.73-.7,1.88-.74,1.95-.74,1.32-.48,2,.82.54.21.36.14.24.1,1.57.62.66.26.4.15.33.13,1.32.5.77.29.39.14.36.14,1.19.43.79.29.39.14.33.11,1.2.43.82.29.38.13.32.11,1.17.4.89.3.37.12.33.11,1.09.36.91.29.35.11.29.09,1.13.36.91.28.35.11.26.08,1.14.35,1,.29.28.09.18.05,1.2.35,1,.29.24.07.17,0,1.19.34,1,.28.23.06.16,0,1.18.32,1.1.29.14,0,.07,0,1.25.32,1.14.29.09,0,1.3.33,1.19.28,1.31.31,1.19.28,1.26.28,1.19.26,1.22.26,1.17.24,1.21.24,1.13.22,1.19.23,1.11.2,1.16.21,1.09.18,1.13.19,1.06.16,1.1.17,1,.15,1.06.14,1,.13,1,.13,1,.11,1,.11.94.09,1,.09.9.07.93.07.88.05.89,0,.83,0,.85,0h0l.75,0h2.19l.56-.48a126.64,126.64,0,0,0,11.22-11l0,0,0,0c2.74-3.26,5.19-6.24,6.9-8.39l0,0,0,0c.95-1.27,1.91-2.61,2.93-4.09l1.82-2.63-3.17-.48-.15,0-.48-.07h-.08l-.7-.11-.63-.11-.87-.15-.77-.14-.94-.17L217,187l-1-.2-1-.19-1.13-.23-1-.22-1.22-.26-1.08-.23-1.32-.29-.15,0-1-.22-1.37-.31-.33-.07-.86-.2-1.35-.31-.16,0-.33-.07-.83-.19-1.4-.33-.18-.05-.39-.09-.8-.19-1.31-.31-.32-.08-.42-.1-.79-.19-1.79-.43-.13,0L195,182l-.59-.14-2.92-.73L191,181l-.32-.08-2.2-.56-.74-.19-.43-.11L187,180l-1.5-.39-.9-.24-.39-.1-.29-.08-1.38-.36-.91-.25-.4-.11-.19-.05-1.43-.38-1.07-.3-.26-.07-1.55-.43-1.18-.33-.13,0-1.54-.43-1.27-.37-1.47-.42-1.27-.38-1.41-.42-1.21-.37-1.36-.42-1.16-.36-1.29-.41-1.1-.36-1.22-.4-1-.35-1.14-.39-.15-.06-.78-.27-1-.37-.06,0-.22-.08-.62-.23-.85-.33-.12,0-.22-.09-.51-.2-.74-.32-.14-.06-.23-.1-.36-.16c-.28-.12-.52-.24-.77-.36l-.06,0-.2-.1-.2-.1c-.37-.19-.7-.36-1-.52l-1.1-.67Z"/><path class="cls-2" d="M70,232.32A122,122,0,0,1,50.8,221.18l-2.3-1.63,2.81-.19a211.66,211.66,0,0,0,27.83-3.73,213.83,213.83,0,0,0,51-17.26l.44-.21.44.21c.33.16,33.64,16.16,66.06,17.33l2.72.1-2.14,1.69a124,124,0,0,1-14.26,9.67l-.24.14h-.28c-35.33-.76-50.2-4.55-66-8.56-3-.76-6.09-1.55-9.32-2.31l-.72.35L70.42,232.51Z"/><path class="cls-3" d="M130.56,199.27S164,215.51,197,216.7a121.51,121.51,0,0,1-14.14,9.59c-42.39-.91-55.55-6.28-75.41-10.93l-1,.51-36,15.55a122.38,122.38,0,0,1-19.07-11.06,212,212,0,0,0,28-3.75,214.28,214.28,0,0,0,51.22-17.34m0-2.22-.87.42a212.49,212.49,0,0,1-50.75,17.18,210.91,210.91,0,0,1-27.7,3.71l-5.61.38L50.22,222a124.12,124.12,0,0,0,19.37,11.24l.82.38.82-.36,36-15.55,0,0,0,0,.39-.19c3.1.74,6.08,1.5,9,2.23,15.81,4,30.73,7.83,66.18,8.59h.56l.49-.28a124.65,124.65,0,0,0,14.37-9.75l4.29-3.37-5.46-.2c-32.22-1.16-65.33-17.07-65.66-17.23l-.87-.42Z"/><path class="cls-2" d="M121.75,243.72a121.89,121.89,0,0,1-49.09-10.21l-2-.86,1.93-1c2.18-1.09,8-3.52,14.13-6.1,8.65-3.64,18.47-7.76,20.37-9l.45-.29.49.21c17.08,7.32,44.66,9.3,71.44,10.7l3.57.19-3.14,1.69A123.09,123.09,0,0,1,121.75,243.72Z"/><path class="cls-3" d="M107.67,217.43c16.87,7.23,43.4,9.3,71.78,10.78A122.07,122.07,0,0,1,73.06,232.6c5.22-2.6,31.23-12.95,34.61-15.17m-.2-2.27-.9.6c-1.82,1.2-12,5.48-20.21,8.92-6.42,2.69-12,5-14.19,6.13l-3.84,1.9,3.93,1.72A124.06,124.06,0,0,0,180.4,230l6.28-3.38-7.12-.37c-26.7-1.4-54.17-3.38-71.1-10.63l-1-.43Z"/></g></g></svg>